The Liquidator (2012) DVDRip X264 AAC-NLU002
.
94 min  -  Action | Thriller  -   April 2011 (Kazakhstan)
. 
http://www.imdb.com/title/tt2072268/
. 
http://www.moviemeter.nl/film/82252
.
Source: Retail DVDR
English Audio
Subtitles: Dutch IDX
Picture are also inside this torrent
.
Screens
[IMG]http://i.minus.com/jLv1rlGHvfchx.png[/IMG]
[IMG]http://i.minus.com/jW4ZQ7GGsoD0L.png[/IMG]
[IMG]http://i.minus.com/j3QlHbypo33DW.png[/IMG]
[IMG]http://i.minus.com/jT2Napjz1U6XQ.png[/IMG]
[IMG]http://i.minus.com/j7NlHjNYLjLF3.png[/IMG]
[IMG]http://i.minus.com/jMBrwH3i4Hmzm.png[/IMG]
.
General
Format                                   : MPEG-4
Format profile                           : Base Media
Codec ID                                 : isom
File size                                : 1.36 GiB
Duration                                 : 1h 33mn
Overall bit rate mode                    : Variable
Overall bit rate                         : 2 074 Kbps

Video
ID                                       : 1
Format                                   : AVC
Format/Info                              : Advanced Video Codec
Format profile                           : High@L3.1
Format settings, CABAC                   : Yes
Format settings, ReFrames                : 10 frames
Codec ID                                 : avc1
Codec ID/Info                            : Advanced Video Coding
Duration                                 : 1h 33mn
Bit rate                                 : 1 946 Kbps
Maximum bit rate                         : 6 688 Kbps
Width                                    : 712 pixels
Height                                   : 296 pixels
Display aspect ratio                     : 2.40:1
Frame rate mode                          : Constant
Frame rate                               : 25.000 fps
Color space                              : YUV
Chroma subsampling                       : 4:2:0
Bit depth                                : 8 bits
Scan type                                : Progressive
Bits/(Pixel*Frame)                       : 0.369
Stream size                              : 1.27 GiB (94%)
Writing library                          : x264 core 93 r1538bm bd72d46
Encoding settings                        : cabac=1 / ref=10 / deblock=1:-2:-1 / analyse=0x3:0x133 / me=umh / subme=6 / psy=1 / psy_rd=1.00:0.00 / mixed_ref=1 / me_range=16 / chroma_me=1 / trellis=2 / 8x8dct=1 / cqm=0 / deadzone=21,11 / fast_pskip=0 / chroma_qp_offset=-2 / threads=2 / sliced_threads=0 / nr=0 / decimate=1 / interlaced=0 / constrained_intra=0 / bframes=16 / b_pyramid=2 / b_adapt=1 / b_bias=0 / direct=1 / wpredb=1 / wpredp=2 / keyint=250 / keyint_min=25 / scenecut=40 / intra_refresh=0 / rc_lookahead=40 / rc=2pass / mbtree=1 / bitrate=1946 / ratetol=1.0 / qcomp=0.60 / qpmin=10 / qpmax=51 / qpstep=4 / cplxblur=20.0 / qblur=0.5 / ip_ratio=1.40 / aq=1:1.00

Audio
ID                                       : 2
Format                                   : AAC
Format/Info                              : Advanced Audio Codec
Format profile                           : LC
Codec ID                                 : 40
Duration                                 : 1h 33mn
Bit rate mode                            : Variable
Bit rate                                 : 125 Kbps
Maximum bit rate                         : 182 Kbps
Channel(s)                               : 2 channels
Channel positions                        : Front: L R
Sampling rate                            : 48.0 KHz
Compression mode                         : Lossy
Stream size                              : 84.1 MiB (6%)
.
Enjoy English Version
